<?xml version="1.0" standalone="no"?>
<!DOCTYPE svg PUBLIC "-//W3C//DTD SVG 20010904//EN"
 "http://www.w3.org/TR/2001/REC-SVG-20010904/DTD/svg10.dtd">
<svg version="1.0" xmlns="http://www.w3.org/2000/svg"
 width="231.000000pt" height="231.000000pt" viewBox="0 0 231.000000 231.000000"
 preserveAspectRatio="xMidYMid meet">
<metadata>
Created by potrace 1.11, written by Peter Selinger 2001-2013
</metadata>
<g transform="translate(0.000000,231.000000) scale(0.100000,-0.100000)"
fill="#000000" stroke="none">
<path d="M0 1155 l0 -1155 1155 0 1155 0 0 1155 0 1155 -1155 0 -1155 0 0
-1155z m1292 1074 c56 -12 114 -38 161 -73 39 -29 97 -109 97 -135 0 -15 16
-28 68 -53 159 -78 177 -230 37 -322 -61 -40 -140 -62 -161 -45 -8 6 -14 24
-14 40 0 45 -13 41 -41 -11 l-26 -49 33 -11 c19 -7 65 -36 103 -65 81 -62 74
-65 125 58 35 84 78 131 133 147 37 11 45 11 75 -7 119 -69 98 -199 -58 -363
l-75 -79 16 -31 c25 -47 45 -155 45 -240 0 -81 -16 -198 -29 -215 -5 -5 -12
-21 -16 -33 -4 -13 -23 -50 -42 -83 l-35 -59 62 -67 c72 -79 99 -131 100 -191
0 -80 -40 -122 -118 -122 -57 0 -80 24 -134 136 -27 57 -52 104 -55 104 -3 0
-18 -9 -33 -20 -52 -37 -144 -74 -210 -85 l-65 -11 -16 -60 c-21 -77 -31 -96
-70 -128 -20 -17 -42 -26 -65 -26 -19 0 -34 2 -34 4 0 3 12 27 26 53 21 40 25
57 20 97 -3 27 -11 53 -17 57 -7 4 -39 12 -72 19 -32 6 -96 29 -140 51 -61 30
-83 36 -93 28 -8 -6 -14 -15 -14 -20 0 -4 -16 -42 -37 -84 -41 -87 -76 -117
-135 -119 -34 -1 -45 5 -74 36 -65 72 -44 160 67 282 l60 65 -30 45 c-17 25
-31 49 -31 53 0 5 -8 27 -19 49 -47 98 -56 282 -21 410 12 43 26 83 31 88 5 6
-22 41 -64 86 -98 101 -137 171 -137 241 0 69 36 125 86 135 48 9 100 -3 125
-29 19 -19 92 -163 113 -221 6 -18 9 -17 39 11 37 35 109 83 150 101 32 14 33
21 7 72 -11 22 -21 47 -22 57 -1 10 -4 -7 -7 -37 l-6 -55 -42 -3 c-53 -4 -116
23 -170 72 -110 99 -60 254 100 305 28 10 37 18 37 35 0 38 67 120 131 161 89
58 254 81 381 54z"/>
<path d="M1080 2175 c-97 -22 -154 -56 -194 -114 -24 -35 -26 -45 -25 -147 l0
-109 23 67 c32 95 75 145 162 185 49 22 66 25 138 21 94 -5 146 -27 194 -83
51 -57 65 -84 83 -154 l17 -66 -2 125 c-2 69 -7 134 -14 146 -16 29 -88 93
-120 106 -41 16 -143 37 -177 37 -16 -1 -55 -7 -85 -14z"/>
<path d="M866 1274 c-99 -18 -128 -32 -141 -68 -8 -25 -6 -31 19 -53 16 -13
35 -22 44 -18 60 23 207 37 337 32 160 -6 253 -27 376 -83 77 -34 81 -35 105
-19 78 51 12 118 -171 174 -158 49 -406 64 -569 35z"/>
<path d="M895 1055 c-106 -20 -125 -29 -125 -64 0 -51 18 -56 132 -36 177 31
352 10 507 -61 88 -41 117 -43 132 -10 17 36 -1 58 -73 93 -170 83 -388 113
-573 78z"/>
<path d="M901 846 c-89 -15 -117 -31 -107 -64 10 -30 26 -32 113 -17 162 29
315 13 443 -46 72 -33 96 -34 114 -7 8 13 6 21 -7 36 -23 25 -114 66 -192 87
-83 22 -261 27 -364 11z"/>
</g>
</svg>
